<?xml version="1.0" encoding="UTF-8"?>
<svg xmlns="http://www.w3.org/2000/svg" xmlns:xlink="http://www.w3.org/1999/xlink" width="24pt" height="24pt" viewBox="0 0 24 24" version="1.1">
<g id="surface1">
<path style=" stroke:none;fill-rule:nonzero;fill:rgb(0%,0%,0%);fill-opacity:1;" d="M 11.289062 2.867188 L 7.835938 4.78125 L 6.449219 7.78125 C 5.699219 9.429688 5.0625 10.875 5.0625 11.007812 C 5.0625 11.117188 6.019531 13.425781 7.199219 16.144531 L 9.335938 21.054688 L 12.449219 22.144531 L 15.5625 23.230469 L 16.105469 22.164062 C 16.574219 21.242188 16.820312 20.082031 17.792969 14.136719 C 18.429688 10.3125 18.9375 7.085938 18.9375 6.976562 C 18.9375 6.863281 18.769531 6.675781 18.542969 6.5625 C 18.226562 6.375 17.476562 6.636719 13.875 8.136719 C 11.492188 9.132812 9.523438 9.9375 9.46875 9.9375 C 9.429688 9.9375 9.261719 9.695312 9.09375 9.375 L 8.8125 8.832031 L 11.8125 6.449219 L 14.8125 4.070312 L 14.8125 3.207031 C 14.8125 2.738281 14.867188 2.023438 14.925781 1.632812 C 15 1.257812 14.980469 0.9375 14.886719 0.9375 C 14.792969 0.9375 13.164062 1.820312 11.289062 2.867188 Z M 11.289062 2.867188 "/>
</g>
</svg>
